<?xml version="1.0" encoding="utf-8"?>
<!-- Generator: Adobe Illustrator 16.0.4, SVG Export Plug-In . SVG Version: 6.00 Build 0)  -->
<!DOCTYPE svg PUBLIC "-//W3C//DTD SVG 1.1//EN" "http://www.w3.org/Graphics/SVG/1.1/DTD/svg11.dtd">
<svg version="1.1" id="Layer_1" xmlns="http://www.w3.org/2000/svg" xmlns:xlink="http://www.w3.org/1999/xlink" x="0px" y="0px"
	 width="556.84px" height="338px" viewBox="75.005 238.65 556.84 338" enable-background="new 75.005 238.65 556.84 338"
	 xml:space="preserve">
<path d="M629.847,409.624c0-8.137-6.604-14.74-14.74-14.74H126.004l126.537-126.537c2.874-2.874,4.312-6.648,4.312-10.422
	s-1.438-7.547-4.312-10.421c-5.756-5.756-15.087-5.756-20.851,0L81.99,397.205c-5.756,5.749-5.756,15.095,0,20.843l149.709,149.709
	c5.756,5.756,15.087,5.756,20.85,0c5.756-5.748,5.756-15.094,0-20.843l-122.55-122.55h485.108
	C623.243,424.364,629.847,417.76,629.847,409.624z"/>
</svg>
